<svg xmlns="http://www.w3.org/2000/svg" xmlns:xlink="http://www.w3.org/1999/xlink" contentStyleType="text/css" data-diagram-type="ACTIVITY" height="549px" preserveAspectRatio="none" style="width:632px;height:549px;background:#FAFAFA;" version="1.1" viewBox="0 0 632 549" width="632px" zoomAndPan="magnify"><title>US04 &#8212; Adicionar pe&#231;a ao Pedido</title><defs/><g><rect fill="#FAFAFA" height="549" style="stroke:none;stroke-width:1;" width="632" x="0" y="0"/><g class="title" data-source-line="2"><text fill="#000000" font-family="sans-serif" font-size="14" font-weight="bold" lengthAdjust="spacing" textLength="228.3887" x="200.4968" y="34.5332">US04 &#8212; Adicionar pe&#231;a ao Pedido</text></g><ellipse cx="255.2057" cy="58.6094" fill="#24527A" rx="10" ry="10" style="stroke:#222222;stroke-width:1;"/><rect fill="#E8F1FB" height="50.1875" rx="12.5" ry="12.5" style="stroke:#24527A;stroke-width:0.5;" width="190.127" x="160.1422" y="88.6094"/><text fill="#17324D" font-family="sans-serif" font-size="12" lengthAdjust="spacing" textLength="170.127" x="170.1422" y="111.0664">Receber o c&#243;digo do pedido e o</text><text fill="#17324D" font-family="sans-serif" font-size="12" lengthAdjust="spacing" textLength="163.4121" x="170.1422" y="126.1602">AdicionarItemPedidoPecaDTO</text><polygon fill="#FFF4CC" points="177.5397,158.7969,332.8717,158.7969,344.8717,172.6328,332.8717,186.4688,177.5397,186.4688,165.5397,172.6328,177.5397,158.7969" style="stroke:#9A6B00;stroke-width:0.5;"/><text fill="#17324D" font-family="sans-serif" font-size="11" lengthAdjust="spacing" textLength="143.7036" x="177.5397" y="170.2158">C&#243;digo da pe&#231;a foi informado</text><text fill="#17324D" font-family="sans-serif" font-size="11" lengthAdjust="spacing" textLength="155.332" x="177.5397" y="184.0518">e quantidade &#233; maior que zero?</text><text fill="#000000" font-family="sans-serif" font-size="11" lengthAdjust="spacing" textLength="18.353" x="147.1866" y="170.2158">n&#227;o</text><text fill="#000000" font-family="sans-serif" font-size="11" lengthAdjust="spacing" textLength="17.1069" x="344.8717" y="170.2158">sim</text><rect fill="#FDECEC" height="35.0938" rx="12.5" ry="12.5" style="stroke:#24527A;stroke-width:0.5;" width="178.7422" x="11" y="196.4688"/><text fill="#17324D" font-family="sans-serif" font-size="12" lengthAdjust="spacing" textLength="58.7051" x="21" y="218.9258">Responder</text><text fill="#17324D" font-family="sans-serif" font-size="12" font-weight="bold" lengthAdjust="spacing" textLength="96.7031" x="83.0391" y="218.9258">400 Bad Request</text><ellipse cx="100.3711" cy="262.5625" fill="none" rx="11" ry="11" style="stroke:#222222;stroke-width:1;"/><ellipse cx="100.3711" cy="262.5625" fill="#222222" rx="6" ry="6" style="stroke:#222222;stroke-width:1;"/><rect fill="#E8F1FB" height="35.0938" rx="12.5" ry="12.5" style="stroke:#24527A;stroke-width:0.5;" width="202.127" x="308.9768" y="196.4688"/><text fill="#17324D" font-family="sans-serif" font-size="12" lengthAdjust="spacing" textLength="182.127" x="318.9768" y="218.9258">Tentar adicionar a pe&#231;a ao pedido</text><polygon fill="#FFF4CC" points="324.4277,251.5625,495.6528,251.5625,507.6528,263.5625,495.6528,275.5625,324.4277,275.5625,312.4277,263.5625,324.4277,251.5625" style="stroke:#9A6B00;stroke-width:0.5;"/><text fill="#17324D" font-family="sans-serif" font-size="11" lengthAdjust="spacing" textLength="171.2251" x="324.4277" y="268.0635">Pedido e pe&#231;a foram encontrados?</text><text fill="#000000" font-family="sans-serif" font-size="11" lengthAdjust="spacing" textLength="18.353" x="294.0747" y="261.1455">n&#227;o</text><text fill="#000000" font-family="sans-serif" font-size="11" lengthAdjust="spacing" textLength="17.1069" x="507.6528" y="261.1455">sim</text><rect fill="#FDECEC" height="35.0938" rx="12.5" ry="12.5" style="stroke:#24527A;stroke-width:0.5;" width="165.3711" x="219.7422" y="285.5625"/><text fill="#17324D" font-family="sans-serif" font-size="12" lengthAdjust="spacing" textLength="58.7051" x="229.7422" y="308.0195">Responder</text><text fill="#17324D" font-family="sans-serif" font-size="12" font-weight="bold" lengthAdjust="spacing" textLength="83.332" x="291.7813" y="308.0195">404 Not Found</text><ellipse cx="302.4277" cy="366.6563" fill="none" rx="11" ry="11" style="stroke:#222222;stroke-width:1;"/><ellipse cx="302.4277" cy="366.6563" fill="#222222" rx="6" ry="6" style="stroke:#222222;stroke-width:1;"/><rect fill="#E8F1FB" height="50.1875" rx="12.5" ry="12.5" style="stroke:#24527A;stroke-width:0.5;" width="207.459" x="413.9233" y="285.5625"/><text fill="#17324D" font-family="sans-serif" font-size="12" lengthAdjust="spacing" textLength="187.459" x="423.9233" y="308.0195">Converter o pedido atualizado para</text><text fill="#17324D" font-family="sans-serif" font-size="12" lengthAdjust="spacing" textLength="150.082" x="423.9233" y="323.1133">PedidoPecasResponseDTO</text><rect fill="#E7F6EC" height="35.0938" rx="12.5" ry="12.5" style="stroke:#24527A;stroke-width:0.5;" width="188.0703" x="423.6177" y="370.75"/><text fill="#17324D" font-family="sans-serif" font-size="12" lengthAdjust="spacing" textLength="58.7051" x="433.6177" y="393.207">Responder</text><text fill="#17324D" font-family="sans-serif" font-size="12" font-weight="bold" lengthAdjust="spacing" textLength="41.3555" x="495.6567" y="393.207">200 OK</text><text fill="#17324D" font-family="sans-serif" font-size="12" lengthAdjust="spacing" textLength="61.3418" x="540.3462" y="393.207">com o DTO</text><ellipse cx="517.6528" cy="436.8438" fill="none" rx="11" ry="11" style="stroke:#222222;stroke-width:1;"/><ellipse cx="517.6528" cy="436.8438" fill="#222222" rx="6" ry="6" style="stroke:#222222;stroke-width:1;"/><line style="stroke:#181818;stroke-width:1;" x1="255.2057" x2="255.2057" y1="68.6094" y2="88.6094"/><polygon fill="#181818" points="251.2057,78.6094,255.2057,88.6094,259.2057,78.6094,255.2057,82.6094" style="stroke:#181818;stroke-width:1;"/><line style="stroke:#181818;stroke-width:1;" x1="100.3711" x2="100.3711" y1="231.5625" y2="251.5625"/><polygon fill="#181818" points="96.3711,241.5625,100.3711,251.5625,104.3711,241.5625,100.3711,245.5625" style="stroke:#181818;stroke-width:1;"/><line style="stroke:#181818;stroke-width:1;" x1="302.4277" x2="302.4277" y1="320.6563" y2="355.6563"/><polygon fill="#181818" points="298.4277,345.6563,302.4277,355.6563,306.4277,345.6563,302.4277,349.6563" style="stroke:#181818;stroke-width:1;"/><line style="stroke:#181818;stroke-width:1;" x1="517.6528" x2="517.6528" y1="335.75" y2="370.75"/><polygon fill="#181818" points="513.6528,360.75,517.6528,370.75,521.6528,360.75,517.6528,364.75" style="stroke:#181818;stroke-width:1;"/><line style="stroke:#181818;stroke-width:1;" x1="517.6528" x2="517.6528" y1="405.8438" y2="425.8438"/><polygon fill="#181818" points="513.6528,415.8438,517.6528,425.8438,521.6528,415.8438,517.6528,419.8438" style="stroke:#181818;stroke-width:1;"/><line style="stroke:#181818;stroke-width:1;" x1="312.4277" x2="302.4277" y1="263.5625" y2="263.5625"/><line style="stroke:#181818;stroke-width:1;" x1="302.4277" x2="302.4277" y1="263.5625" y2="285.5625"/><polygon fill="#181818" points="298.4277,275.5625,302.4277,285.5625,306.4277,275.5625,302.4277,279.5625" style="stroke:#181818;stroke-width:1;"/><line style="stroke:#181818;stroke-width:1;" x1="507.6528" x2="517.6528" y1="263.5625" y2="263.5625"/><line style="stroke:#181818;stroke-width:1;" x1="517.6528" x2="517.6528" y1="263.5625" y2="285.5625"/><polygon fill="#181818" points="513.6528,275.5625,517.6528,285.5625,521.6528,275.5625,517.6528,279.5625" style="stroke:#181818;stroke-width:1;"/><line style="stroke:#181818;stroke-width:1;" x1="410.0403" x2="410.0403" y1="231.5625" y2="251.5625"/><polygon fill="#181818" points="406.0403,241.5625,410.0403,251.5625,414.0403,241.5625,410.0403,245.5625" style="stroke:#181818;stroke-width:1;"/><line style="stroke:#181818;stroke-width:1;" x1="165.5397" x2="100.3711" y1="172.6328" y2="172.6328"/><line style="stroke:#181818;stroke-width:1;" x1="100.3711" x2="100.3711" y1="172.6328" y2="196.4688"/><polygon fill="#181818" points="96.3711,186.4688,100.3711,196.4688,104.3711,186.4688,100.3711,190.4688" style="stroke:#181818;stroke-width:1;"/><line style="stroke:#181818;stroke-width:1;" x1="344.8717" x2="410.0403" y1="172.6328" y2="172.6328"/><line style="stroke:#181818;stroke-width:1;" x1="410.0403" x2="410.0403" y1="172.6328" y2="196.4688"/><polygon fill="#181818" points="406.0403,186.4688,410.0403,196.4688,414.0403,186.4688,410.0403,190.4688" style="stroke:#181818;stroke-width:1;"/><line style="stroke:#181818;stroke-width:1;" x1="255.2057" x2="255.2057" y1="138.7969" y2="158.7969"/><polygon fill="#181818" points="251.2057,148.7969,255.2057,158.7969,259.2057,148.7969,255.2057,152.7969" style="stroke:#181818;stroke-width:1;"/><g class="legend" data-source-line="39"><rect fill="none" height="45.2188" rx="7.5" ry="7.5" style="stroke:#000000;stroke-width:1;" width="327.5088" x="279.8735" y="458.8438"/><text fill="#000000" font-family="sans-serif" font-size="14" lengthAdjust="spacing" textLength="259.1162" x="284.8735" y="478.377">Diagrama restrito &#224; decis&#227;o do Controller.</text><text fill="#000000" font-family="sans-serif" font-size="14" lengthAdjust="spacing" textLength="317.5088" x="284.8735" y="495.9863">N&#227;o representa repository, banco ou infraestrutura.</text></g><g class="caption" data-source-line="3"><text fill="#000000" font-family="sans-serif" font-size="14" lengthAdjust="spacing" textLength="426.46" x="101.4612" y="532.5957">POST /api/pedidos-pecas/{codigo}/itens &#8212; vis&#227;o l&#243;gica do Controller</text></g><!--SRC=[TPF1JXj138RlynIMk43Kaf2cqCAXIZPPgQf48a9llPWTPpDYTxpCp581Gk8X-W2LUgXwvX7o9dsIUh992A0gKhIoFPxF_-y99XG4NwUT7lnz-05zRJB35XrKjFYDW0mJqaQpoh0Aae79U7eERQnCkrec_DkAClJjkuoroVc-RG9PlsnsRVpY5qEnUCnDXg0P4hR1SL6GKyfV6bkXmn8kCBlC7TTM9romWvsq7tzR5NwEchyRcyCC2qzR6So2kJRX1kuKmE1bez67z20Tn0mxJMuLxVRUTu_w4aq5PnKxE7hNxGqbDZHOijMlMgLfsakIhOBjZX_xXuDEHvBJW2wyl6QqQR8AtSlqiL2fupFAw88SC6IBnoXWbAbH5WXORGpv7AXih9Y8tiFpyObIPWQxoVeOhYoRiG5ZP-nAqUoR9RYgqGQZKHCi_a29HaYkQe9RSlnf3yASBEnQSMfFM7VIuIWP9SBbAvbIo5gjNgSZqceu8pdcGwjr8eK-SAL8p81TRyfuzFYSh4m5kDaXVDgYPYHX1eZKa_M4Q-Re9TaixeTW-rTS_oFhmIa7CLACQhXMP03Fs8HETk-QN5XglH8OGus5kSKekMpJikv9Oz_Sv6afzX9XT9GUla3eYZZZBwqMP5nAvqtjci9gCrFDloeebozm9f-7PfDocHl1YQhE18R5Jz2KDS_csNFPb_BJ67LKINKKEdwobrFkveqy8T4Ek8xEEupjwb0xt8ytDxUgVm00]--></g></svg>